<svg xmlns="http://www.w3.org/2000/svg" xmlns:xlink="http://www.w3.org/1999/xlink" width="500" zoomAndPan="magnify" viewBox="0 0 375 374.999991" height="500" preserveAspectRatio="xMidYMid meet" version="1.0"><defs><g/></defs><g fill="#000000" fill-opacity="1"><g transform="translate(32.100609, 279.941701)"><g><path d="M 182.996094 -3.496094 L 94.414062 -231.371094 C 93.539062 -233.699219 89.460938 -233.699219 88.585938 -231.371094 L 0.292969 -3.496094 C -0.582031 -1.75 0.582031 0 3.207031 0 L 43.125 0 C 44.292969 0 45.75 -0.582031 46.039062 -1.75 L 91.5 -131.710938 L 137.539062 -1.75 C 137.832031 -0.582031 139.289062 0 140.164062 0 L 180.375 0 C 182.414062 0 183.871094 -1.75 182.996094 -3.496094 Z M 182.996094 -3.496094 "/></g></g></g><g fill="#000000" fill-opacity="1"><g transform="translate(172.92041, 325.744451)"><g><path d="M 121.511719 -189.699219 L 90.914062 -104.320312 L 45.457031 -231.371094 C 45.167969 -232.535156 44 -233.117188 42.542969 -233.117188 L 2.914062 -233.117188 C 0.582031 -233.117188 -0.582031 -231.371094 0.292969 -229.621094 L 88.003906 -1.457031 C 89.167969 0.582031 92.664062 0.582031 93.539062 -1.457031 L 166.386719 -189.699219 Z M 121.511719 -189.699219 "/></g></g></g></svg>